<svg width="2132" height="622" viewBox="0 0 2132 622" fill="none" xmlns="http://www.w3.org/2000/svg">
<path d="M823.25 138H868.25V423H823.25V138ZM988.625 138H1033.63V423H988.625V138ZM1014.5 423H988.625L836.375 172.125V138H869.375L1014.5 378.75V423ZM1153.24 213.375C1167.49 213.375 1180.37 215.875 1191.87 220.875C1203.62 225.625 1213.74 232.5 1222.24 241.5C1230.74 250.5 1237.24 261.25 1241.74 273.75C1246.49 286 1248.87 299.625 1248.87 314.625V338.625H1099.99C1101.99 351.625 1108.12 362.25 1118.37 370.5C1128.87 378.75 1141.62 382.875 1156.62 382.875C1167.87 382.875 1177.74 380.625 1186.24 376.125C1194.99 371.375 1200.87 365.125 1203.87 357.375H1248.87C1247.37 367.875 1244.12 377.375 1239.12 385.875C1234.12 394.375 1227.62 401.625 1219.62 407.625C1211.87 413.375 1202.74 417.875 1192.24 421.125C1181.99 424.375 1170.62 426 1158.12 426C1142.37 426 1128.12 423.5 1115.37 418.5C1102.62 413.25 1091.74 406 1082.74 396.75C1073.74 387.5 1066.74 376.375 1061.74 363.375C1056.74 350.125 1054.24 335.625 1054.24 319.875C1054.24 304.375 1056.62 290.125 1061.37 277.125C1066.12 264.125 1072.87 252.875 1081.62 243.375C1090.37 233.875 1100.74 226.5 1112.74 221.25C1124.99 216 1138.49 213.375 1153.24 213.375ZM1151.74 256.125C1144.74 256.125 1138.24 257.25 1132.24 259.5C1126.24 261.75 1121.12 264.875 1116.87 268.875C1112.87 272.625 1109.62 277.125 1107.12 282.375C1104.87 287.625 1103.74 293.25 1103.74 299.25H1200.87C1200.87 293 1199.62 287.25 1197.12 282C1194.62 276.75 1191.12 272.25 1186.62 268.5C1182.37 264.5 1177.24 261.5 1171.24 259.5C1165.24 257.25 1158.74 256.125 1151.74 256.125ZM1378.22 423L1339.6 356.625H1341.1L1302.47 423H1254.47L1317.1 315V324.75L1254.47 216.75H1302.47L1341.1 283.125H1339.6L1378.22 216.75H1426.22L1363.6 324.75V315L1426.22 423H1378.22ZM1487.83 322.125C1487.83 340.375 1491.58 354.875 1499.08 365.625C1506.83 376.375 1517.33 381.75 1530.58 381.75C1536.58 381.75 1542.46 380.625 1548.21 378.375C1554.21 375.875 1559.83 372.625 1565.08 368.625C1570.33 364.375 1575.08 359.375 1579.33 353.625C1583.83 347.625 1587.58 341.125 1590.58 334.125L1585.71 349.5V216.75H1628.83V423H1585.71V374.625H1590.58C1583.33 390.875 1572.96 403.625 1559.46 412.875C1546.21 422.125 1531.71 426.75 1515.96 426.75C1505.46 426.75 1495.83 424.75 1487.08 420.75C1478.33 416.5 1470.83 410.75 1464.58 403.5C1458.33 396.25 1453.46 387.625 1449.96 377.625C1446.46 367.375 1444.71 356.125 1444.71 343.875V216.75H1487.83V322.125ZM1697.29 278.25C1697.29 283.75 1700.04 288 1705.54 291C1711.29 293.75 1718.42 296.125 1726.92 298.125C1735.67 300.125 1744.92 302.25 1754.67 304.5C1764.67 306.75 1773.92 310 1782.42 314.25C1791.17 318.5 1798.29 324.375 1803.79 331.875C1809.54 339.375 1812.42 349.25 1812.42 361.5C1812.42 371 1810.42 379.75 1806.42 387.75C1802.42 395.5 1796.92 402.25 1789.92 408C1782.92 413.75 1774.54 418.25 1764.79 421.5C1755.04 424.75 1744.29 426.375 1732.54 426.375C1721.04 426.375 1710.29 424.625 1700.29 421.125C1690.54 417.625 1681.92 412.875 1674.42 406.875C1667.17 400.625 1661.42 393.375 1657.17 385.125C1653.17 376.625 1651.17 367.5 1651.17 357.75H1696.17C1696.17 361 1697.17 364.25 1699.17 367.5C1701.42 370.5 1704.29 373.25 1707.79 375.75C1711.29 378 1715.29 379.875 1719.79 381.375C1724.54 382.625 1729.42 383.25 1734.42 383.25C1743.17 383.25 1750.79 381.125 1757.29 376.875C1764.04 372.625 1767.42 367.625 1767.42 361.875C1767.42 356.875 1764.54 353.125 1758.79 350.625C1753.29 347.875 1746.17 345.5 1737.42 343.5C1728.92 341.25 1719.67 338.875 1709.67 336.375C1699.92 333.875 1690.67 330.375 1681.92 325.875C1673.42 321.125 1666.29 315 1660.54 307.5C1655.04 299.75 1652.29 289.75 1652.29 277.5C1652.29 268 1654.17 259.25 1657.92 251.25C1661.67 243.25 1666.92 236.5 1673.67 231C1680.42 225.25 1688.54 220.875 1698.04 217.875C1707.54 214.625 1717.92 213 1729.17 213C1740.92 213 1751.67 214.75 1761.42 218.25C1771.17 221.75 1779.54 226.625 1786.54 232.875C1793.54 238.875 1798.92 246.125 1802.67 254.625C1806.67 262.875 1808.67 271.875 1808.67 281.625H1763.67C1763.67 274.875 1760.54 269 1754.29 264C1748.29 258.75 1740.42 256.125 1730.67 256.125C1721.42 256.125 1713.54 258.375 1707.04 262.875C1700.54 267.125 1697.29 272.25 1697.29 278.25Z" fill="black"/>
<g clip-path="url(#clip0_278_588)">
<path d="M698.938 204.327C695.674 194.732 698.454 183.282 697.527 173.123C698.333 164.656 690.314 165.987 684.35 165.987C678.668 164.898 657.874 169.172 657.39 161.874C656.262 157.682 658.559 150.707 655.295 147.28C645.18 144.377 633.614 146.796 623.177 146.03C615.036 145.224 605.727 147.724 598.071 144.7C595.451 141.596 596.701 136.475 596.378 131.839C595.29 125.953 599.521 107.327 592.348 106.48C582.072 105.271 568.854 107.327 558.699 105.513C550.478 98.8204 564.018 84.3873 545.078 86.2418C529.805 86.2418 515.298 86.2418 500.024 86.2418C493.254 87.1288 481.608 84.1454 476.127 88.177C472.863 94.8694 479.069 107.811 466.818 106.158C459.686 106.239 453.359 106.158 446.145 106.158C442.035 106.319 435.345 105.029 434.821 110.633C433.895 121.276 435.466 132.081 434.096 142.765C432.242 147.764 425.15 145.547 420.918 146.03C409.353 146.03 398.835 146.03 387.35 146.03C383.602 146.232 378.766 145.305 375.583 147.361C371.472 151.675 376.671 161.431 371.553 165.14C361.599 167.237 351.001 165.382 340.765 166.027C332.463 165.14 333.39 172.84 333.471 178.807C332.504 185.217 335.929 201.465 330.972 205.053C325.854 207.633 313.644 202.311 313.362 211.261C313.039 227.348 313.362 243.272 313.241 259.197C314.248 264.962 310.38 283.346 316.626 285.08C335.566 286.128 333.471 284.193 333.471 303.504C332.463 309.269 336.372 323.541 329.602 325.073C324.484 326.565 313.845 322.574 313.402 330.435C313.039 353.577 313.16 376.476 313.402 399.698C313.805 410.1 328.836 401.23 332.745 407.681C337.581 449.932 320.051 444.771 368.611 445.134C377.557 445.416 371.956 457.713 374.938 462.752C376.711 465.453 380.862 464.728 383.844 464.929C389.889 464.889 394.765 464.929 400.769 464.929C411.126 465.695 422.651 463.317 432.766 466.098C436.756 472.105 433.774 484.281 434.66 491.78C435.063 496.134 432.968 503.391 438.69 504.519C449.087 505.366 459.404 504.439 469.76 504.963C479.351 505.285 472.259 518.872 476.772 523.428C484.751 526.371 494.705 524.032 503.047 524.758C519.126 524.677 534.439 524.96 550.478 524.637C559.021 524.677 554.79 513.147 556.483 508.269C558.095 499.238 596.983 511.01 596.257 500.165C596.781 491.135 596.338 482.628 596.499 473.476C595.653 465.494 600.126 464.526 606.856 464.929C622.25 464.768 637.08 465.252 652.433 464.728C659.768 464.042 656.221 454.326 657.43 449.448C658.357 442.957 666.457 445.537 671.092 444.973C677.136 443.884 696.641 448.158 697.326 440.861C698.575 429.854 696.318 418.405 698.414 407.64C699.018 406.35 700.107 405.665 701.839 405.383C706.111 404.415 713.002 406.35 716.387 403.609C719.53 396.836 717.153 387.563 717.878 380.306C717.878 366.034 717.878 352.407 717.878 338.176C717.556 334.144 719.369 326.968 714.171 325.759C709.536 324.267 701.598 327.492 698.414 322.816C696.56 314.228 698.132 303.746 697.648 294.514C695.351 276.17 719.974 294.756 717.878 276.735C717.757 254.722 718.12 233.113 717.717 211.02C717.113 201.586 703.975 208.48 699.099 204.367L699.018 204.287L698.938 204.327ZM473.75 144.579C474.233 144.055 474.515 143.369 474.717 142.644C475.483 139.58 474.757 133.291 475.402 129.985C475.805 127.364 477.659 126.356 480.399 126.235C493.657 125.913 507.036 126.235 520.093 126.114C527.548 126.114 534.681 126.114 542.096 126.114C544.917 126.114 547.98 126.034 550.72 126.235C553.46 126.396 555.314 127.404 555.717 129.985C556.321 133.008 555.757 138.612 556.281 141.797C556.483 142.926 556.805 144.015 557.651 144.74C560.351 146.716 565.59 145.788 569.015 146.03C571.312 146.151 573.892 146.03 575.262 148.006C576.995 151.513 575.987 156.311 576.269 160.665C576.269 165.463 576.269 169.575 576.269 174.695C576.027 178.162 577.277 183.968 573.247 185.338C571.313 185.983 567.927 185.862 564.704 185.862C562.084 185.701 558.417 186.225 556.926 183.645C554.911 179.089 557.248 172.316 555.072 167.922C553.783 165.906 550.76 166.027 548.383 165.946C533.029 165.946 518.401 165.946 503.087 165.946C497.687 165.946 493.133 165.946 487.451 165.946C484.469 166.027 480.923 165.705 478.183 166.471C473.226 167.962 476.087 178.041 474.838 182.153C474.153 186.427 469.075 185.742 465.811 185.862C461.056 185.58 456.18 186.911 455.253 181.791C454.608 174.292 455.132 166.954 454.971 159.536C454.971 156.754 454.89 153.69 455.132 150.989C455.333 149.296 455.615 148.046 456.824 147.119C460.411 145.103 466.496 146.514 470.687 145.829C471.815 145.667 472.984 145.426 473.79 144.66L473.871 144.579H473.75ZM615.399 247.102C616.124 247.868 616.366 248.957 616.487 250.045C616.85 255.367 616.568 262.18 616.648 267.744C616.568 271.977 616.85 277.904 616.407 281.653C616.205 283.185 615.48 284.636 613.908 285.08C610.201 286.048 605.647 285.362 601.859 285.685C597.829 285.846 596.66 287.338 596.499 291.329C596.338 294.191 596.58 298.223 596.257 301.045C596.136 303.907 594.323 305.359 591.623 305.399C589.286 305.601 585.941 305.52 583.16 305.52C581.508 305.48 579.735 305.48 578.284 304.754C573.811 302.013 578.365 290.039 574.577 286.733C572.804 285.362 568.935 285.725 566.356 285.644C563.172 285.362 558.901 286.491 556.845 283.629C555.435 280.363 556.201 276.372 555.999 272.259C555.999 270.848 555.999 269.316 555.999 267.986C555.999 265.164 555.999 262.422 555.999 259.6C555.999 256.496 555.878 252.585 556.201 250.086C556.362 248.917 556.644 247.707 557.53 246.941C561.601 243.716 574.939 248.715 575.907 242.305C576.551 239.321 575.987 233.274 576.471 229.928C576.632 227.388 578.526 225.977 581.065 225.936C583.563 225.735 586.747 225.816 589.286 225.816C591.744 225.936 593.436 225.816 595.048 227.065C595.854 227.831 596.136 228.96 596.298 230.089C596.701 233.355 596.217 238.959 596.741 241.942C597.466 248.957 611.45 243.474 615.359 246.981L615.439 247.062L615.399 247.102ZM415.639 284.233C414.914 283.467 414.672 282.379 414.551 281.29C414.189 275.969 414.471 269.155 414.39 263.592C414.471 259.358 414.189 253.432 414.632 249.683C414.833 248.151 415.559 246.699 417.13 246.256C420.838 245.288 425.392 245.973 429.18 245.651C433.21 245.49 434.378 243.998 434.539 240.007C434.701 237.144 434.459 233.113 434.781 230.291C434.862 227.589 436.635 226.017 439.214 225.936C442.599 225.695 446.951 225.735 450.014 225.936C450.981 226.017 451.948 226.178 452.714 226.622C457.187 229.363 452.633 241.337 456.421 244.643C458.195 246.014 462.063 245.651 464.642 245.732C467.826 246.014 472.098 244.885 474.153 247.747C475.563 251.013 474.798 255.004 474.999 259.116C474.999 260.528 474.999 262.06 474.999 263.39C474.999 266.212 474.999 268.954 474.999 271.776C474.999 274.88 475.12 278.791 474.798 281.29C474.636 282.459 474.354 283.669 473.468 284.435C469.398 287.66 456.059 282.661 455.092 289.071C454.447 292.055 455.011 298.102 454.527 301.448C454.366 303.988 452.472 305.399 449.933 305.439C447.435 305.641 444.251 305.56 441.713 305.56C439.254 305.439 437.562 305.56 435.95 304.311C435.144 303.545 434.862 302.416 434.701 301.287C434.298 298.021 434.781 292.417 434.257 289.434C433.532 282.419 419.548 287.902 415.639 284.395L415.559 284.314L415.639 284.233ZM353.701 265.567C353.862 247.102 353.378 228.839 353.862 210.415C354.063 207.714 355.514 206.303 357.972 206.061C360.793 205.658 365.508 205.98 368.651 205.738C370.908 205.537 372.278 205.174 373.124 203.521C374.575 199.651 373.407 193.522 374.172 189.733C374.374 188.644 374.777 187.596 375.663 186.991C378.323 185.419 382.554 186.064 385.698 185.943C391.621 185.943 396.336 185.943 402.018 185.943C408.869 185.943 415.035 185.943 421.765 185.943C425.351 186.306 432.484 184.653 433.975 188.644C434.862 191.547 434.66 197.836 434.338 201.666C434.177 203.964 432.565 205.496 430.268 205.617C427.004 206.061 421.321 205.577 418.259 206.101C415.236 206.383 414.39 209.084 414.39 211.826C414.027 215.535 415.075 220.897 413.221 224.082C412.456 225.13 411.045 225.533 409.071 225.695C405.283 226.057 400.608 225.332 396.901 226.34C392.71 227.67 394.483 235.935 394.08 240.047C394.08 244.845 394.08 248.554 394.08 253.513C393.999 256.496 394.362 260.003 393.556 262.826C391.662 268.631 378.524 263.229 374.978 267.422C372.883 271.05 374.414 277.259 373.608 281.451C373.447 284.193 371.23 285.523 368.571 285.523C365.951 285.685 362.526 285.644 359.907 285.604C356.763 285.443 354.668 285.12 353.983 282.338C353.177 277.501 353.741 271.05 353.58 265.809V265.607L353.701 265.567ZM557.289 466.421C556.765 466.985 556.483 467.711 556.321 468.477C555.677 471.46 556.281 477.387 555.757 480.733C555.475 485.531 549.793 484.845 546.126 484.926C526.742 484.926 508.124 484.926 488.58 484.926C484.912 484.684 480.077 485.611 476.853 483.878C475.886 483.192 475.523 482.063 475.321 480.935C474.798 477.75 475.321 471.944 474.757 468.84C474.354 466.018 472.339 465.211 469.398 465.09C465.408 464.607 459.927 465.977 456.421 463.8C454.568 461.986 454.971 458.962 454.85 456.544C455.132 451.222 453.52 445.537 459.887 445.255C469.921 444.933 480.318 445.255 490.554 445.134C517.192 445.215 544.272 444.933 570.91 445.255C577.317 445.416 575.947 450.899 576.148 456.342C576.148 458.358 576.189 460.494 575.584 462.349C573.69 467.671 561.117 463.034 557.329 466.381L557.248 466.461L557.289 466.421ZM677.338 345.473C677.338 356.076 677.338 366.841 677.338 377.403C677.338 383.37 677.338 387.765 677.338 393.57C677.257 396.715 677.781 400.948 675.847 403.488C671.898 407.398 662.186 402.762 658.236 407.358C655.536 411.994 659.002 420.017 655.214 423.807C652.071 425.823 647.396 424.896 643.729 425.137C632.042 425.137 621.363 425.137 609.596 425.137C595.975 425.863 596.338 423.525 596.338 411.148C596.338 403.447 588.157 405.544 582.193 405.221C576.874 406.108 557.007 402.48 556.442 409.092C555.112 414.575 558.578 425.863 549.35 425.097C527.75 425.299 506.674 425.097 484.993 425.178C463.957 426.952 486.726 402.883 464.038 405.262C457.429 405.262 451.908 405.262 445.46 405.262C442.518 405.383 438.972 404.859 436.514 406.592C432.162 410.704 437.481 420.743 432.041 424.331C425.069 426.186 416.848 424.775 409.796 425.178C400.326 425.178 391.057 425.218 381.547 425.178C367.886 426.347 378.887 409.414 370.505 405.786C366.435 404.294 358.577 406.874 355.071 403.327C353.217 400.303 353.942 395.586 353.781 392.038C353.781 381.516 353.781 371.195 353.781 360.914C353.821 353.294 353.781 346.038 353.781 338.539C353.983 334.87 352.975 329.589 355.675 326.847C358.778 324.831 373.165 324.186 373.527 329.065C375.301 341.724 370.586 346.36 387.148 345.514C395.571 344.868 394.201 352.649 394.281 359.382C394.321 366.155 394.12 372.807 394.402 379.621C394.684 388.934 406.693 383.37 412.133 386.354C416.284 389.538 413.463 397.763 415.035 401.915C416.526 407.036 427.93 405.342 431.799 404.576C436.998 402.601 433.854 383.693 434.701 378.21C435.063 367.929 434.539 364.744 423.86 365.43C420.959 365.349 417.13 365.631 415.599 363.293C413.101 355.068 415.075 346.32 414.471 337.652C414.713 333.419 413.221 326.646 418.984 325.88C423.78 325.88 432.001 323.864 434.096 328.823C435.466 336.281 434.378 344.143 434.701 351.561C435.023 356.278 433.814 361.156 436.474 364.059C441.027 367.163 448.604 363.857 453.036 366.8C457.59 371.074 451.666 381.717 458.074 384.781C461.983 386.313 469.559 384.136 473.347 386.837C474.999 388.369 474.959 390.627 475.08 392.844C475.483 396.916 473.79 403.447 478.747 404.859C487.613 405.987 496.559 405.06 505.465 405.342C517.796 405.342 529.926 405.342 542.418 405.342C546.65 404.899 553.823 406.955 555.515 401.795C557.127 396.312 553.299 385.023 562.286 385.507C567.202 384.902 575.786 387.321 576.068 380.105C576.995 375.67 574.214 367.365 580.218 365.873C584.893 364.422 593.638 367.647 595.854 362.245C597.184 354.625 596.136 346.683 596.459 339.063C596.701 335.314 595.733 330.798 597.748 327.533C600.69 324.549 606.735 325.839 611.248 325.759C618.381 326.041 616.326 333.983 616.689 338.821C616.689 343.78 616.689 347.65 616.689 352.448C616.366 357.77 618.099 364.381 612.014 365.188C607.823 366.075 601.295 364.22 597.95 367.163C595.975 369.703 596.66 373.694 596.459 376.839C596.459 382.564 596.459 386.999 596.459 392.804C596.66 397.36 595.21 405.02 601.698 405.141C605.445 405.383 611.49 405.665 614.069 404.455C619.671 400.706 613.908 390.708 618.784 386.555C623.902 383.249 635.387 388.934 636.636 380.629C638.087 372.888 634.702 351.48 638.772 346.844C642.399 344.627 647.477 345.957 651.466 345.393C659.486 345.272 656.302 335.515 657.35 330.355C657.995 324.952 662.951 325.718 667.908 325.597C670.245 325.638 672.784 325.517 674.839 326.525C679.433 330.113 676.492 340.192 677.298 345.433V345.634L677.338 345.473ZM658.398 284.193C654.851 280.04 660.493 266.615 652.998 265.89C649.693 265.365 643.729 265.93 640.626 265.365C639.457 265.164 638.369 264.68 637.765 263.592C636.395 260.729 637.039 256.698 636.878 253.472C636.878 248.03 636.878 244.24 636.878 238.636C636.596 235.008 637.724 230.17 635.508 227.186C631.518 223.437 617.898 229.121 616.971 221.945C616.407 218.841 616.971 213.035 616.407 209.85C616.205 208.762 615.883 207.673 614.996 206.988C612.941 205.537 609.354 205.94 606.574 205.859C603.31 205.577 598.715 206.746 597.104 203.279C596.015 199.288 596.418 193.361 596.741 189.733C597.345 184.25 605.969 186.346 609.959 185.903C621.645 185.903 632.042 185.903 643.89 185.903C647.88 186.306 656.181 184.25 656.866 189.733C657.471 192.998 656.826 199.288 657.511 202.352C657.833 204.367 659.486 205.456 661.42 205.617C664.684 206.061 670.366 205.577 673.429 206.101C676.048 206.424 677.096 208.197 677.217 210.979C677.418 213.68 677.298 216.664 677.338 219.405C677.338 237.144 677.338 254.359 677.338 272.219C676.935 276.089 678.869 284.233 673.912 285.201C671.857 285.685 668.432 285.564 665.248 285.564C662.992 285.443 660.251 285.765 658.478 284.233L658.398 284.153V284.193Z" fill="black"/>
</g>
<defs>
<clipPath id="clip0_278_588">
<rect width="405" height="439" fill="white" transform="translate(313 86)"/>
</clipPath>
</defs>
</svg>
