<svg width="16" height="18" viewBox="0 0 16 18" fill="none" xmlns="http://www.w3.org/2000/svg">
<path d="M15.2445 4.67076C15.1156 4.292 15.2254 3.84003 15.1888 3.43899C15.2207 3.10479 14.9039 3.15731 14.6684 3.15731C14.4439 3.11434 13.6227 3.28303 13.6036 2.99498C13.559 2.82948 13.6497 2.55416 13.5208 2.41889C13.1213 2.30431 12.6645 2.39979 12.2522 2.36955C11.9307 2.33773 11.5631 2.43639 11.2607 2.31704C11.1572 2.1945 11.2065 1.99239 11.1938 1.80937C11.1508 1.57702 11.318 0.841785 11.0346 0.808365C10.6288 0.760622 10.1067 0.841785 9.70561 0.770171C9.38092 0.505994 9.91571 -0.0637364 9.16764 0.00946919C8.5644 0.00946919 7.99141 0.00946919 7.38818 0.00946919C7.12078 0.0444806 6.6608 -0.073285 6.44433 0.0858576C6.31541 0.350034 6.56052 0.860882 6.07666 0.795634C5.79494 0.798816 5.54505 0.795634 5.26015 0.795634C5.0978 0.801999 4.83359 0.751074 4.8129 0.972282C4.77629 1.39242 4.83836 1.81892 4.78425 2.24065C4.71103 2.43799 4.4309 2.35046 4.26378 2.36955C3.80698 2.36955 3.39156 2.36955 2.93794 2.36955C2.78992 2.37751 2.59892 2.34091 2.47318 2.42207C2.31083 2.59235 2.51615 2.97748 2.31401 3.12389C1.92088 3.20664 1.50227 3.13344 1.098 3.1589C0.770117 3.12389 0.806725 3.42785 0.809908 3.66338C0.771709 3.91642 0.906999 4.55776 0.711226 4.6994C0.509087 4.80125 0.0268187 4.59118 0.0156772 4.94448C0.00294403 5.57946 0.0156772 6.20807 0.0109023 6.83669C0.0506934 7.06426 -0.102105 7.78995 0.1446 7.85838C0.892674 7.89976 0.809908 7.82337 0.809908 8.58566C0.770117 8.81324 0.924507 9.3766 0.65711 9.43708C0.454971 9.49596 0.0347769 9.33841 0.0172688 9.64874C0.00294403 10.5622 0.00771896 11.4661 0.0172688 12.3828C0.0331853 12.7934 0.626869 12.4433 0.781259 12.6979C0.972256 14.3657 0.27989 14.162 2.19782 14.1763C2.55117 14.1875 2.32993 14.6729 2.44771 14.8718C2.51774 14.9784 2.68168 14.9498 2.79946 14.9577C3.03821 14.9561 3.2308 14.9577 3.46796 14.9577C3.87701 14.988 4.33222 14.8941 4.73172 15.0039C4.8893 15.241 4.77151 15.7216 4.80653 16.0176C4.82245 16.1895 4.73968 16.476 4.96569 16.5205C5.37634 16.5539 5.7838 16.5173 6.19285 16.538C6.57166 16.5508 6.29153 17.0871 6.4698 17.2669C6.78494 17.3831 7.17808 17.2908 7.50755 17.3194C8.14262 17.3162 8.74744 17.3274 9.38092 17.3146C9.71835 17.3162 9.55122 16.8611 9.61807 16.6685C9.68174 16.312 11.2177 16.7767 11.189 16.3486C11.2097 15.9922 11.1922 15.6564 11.1986 15.2951C11.1652 14.98 11.3418 14.9418 11.6076 14.9577C12.2156 14.9514 12.8014 14.9705 13.4078 14.9498C13.6975 14.9227 13.5574 14.5392 13.6051 14.3466C13.6418 14.0904 13.9617 14.1923 14.1447 14.17C14.3835 14.127 15.1538 14.2957 15.1809 14.0077C15.2302 13.5732 15.1411 13.1212 15.2238 12.6963C15.2477 12.6454 15.2907 12.6183 15.3591 12.6072C15.5279 12.569 15.8 12.6454 15.9337 12.5372C16.0579 12.2698 15.964 11.9038 15.9926 11.6173C15.9926 11.054 15.9926 10.5161 15.9926 9.95429C15.9799 9.79515 16.0515 9.51187 15.8462 9.46413C15.6631 9.40525 15.3496 9.53256 15.2238 9.34796C15.1506 9.00898 15.2127 8.59521 15.1936 8.23078C15.1029 7.50668 16.0754 8.24032 15.9926 7.52896C15.9878 6.66004 16.0022 5.80703 15.9862 4.93493C15.9624 4.56254 15.4435 4.83467 15.2509 4.67235L15.2477 4.66916L15.2445 4.67076ZM6.35043 2.31226C6.36953 2.29157 6.38067 2.26452 6.38863 2.23587C6.41887 2.11493 6.39022 1.86666 6.41568 1.73617C6.4316 1.63272 6.50482 1.59294 6.61305 1.58816C7.1367 1.57543 7.66512 1.58816 8.18082 1.58339C8.47527 1.58339 8.75699 1.58339 9.04986 1.58339C9.16127 1.58339 9.28224 1.58021 9.39047 1.58816C9.4987 1.59453 9.57192 1.63432 9.58783 1.73617C9.61171 1.85552 9.58942 2.07673 9.61011 2.20245C9.61807 2.24701 9.63081 2.28998 9.66423 2.31863C9.77087 2.39661 9.97778 2.36001 10.1131 2.36955C10.2038 2.37433 10.3057 2.36955 10.3598 2.44753C10.4282 2.58599 10.3884 2.77537 10.3996 2.94724C10.3996 3.13662 10.3996 3.29895 10.3996 3.50106C10.39 3.63792 10.4394 3.86709 10.2802 3.92119C10.2038 3.94666 10.0701 3.94188 9.94277 3.94188C9.83931 3.93552 9.69447 3.95621 9.63558 3.85435C9.556 3.67452 9.64831 3.40716 9.56237 3.2337C9.51143 3.15413 9.39206 3.1589 9.29815 3.15572C8.69174 3.15572 8.11397 3.15572 7.50914 3.15572C7.29586 3.15572 7.11601 3.15572 6.89158 3.15572C6.7738 3.1589 6.63374 3.14617 6.52551 3.17641C6.32973 3.23529 6.44274 3.63315 6.3934 3.79547C6.36634 3.96416 6.16579 3.93711 6.03687 3.94188C5.84906 3.93074 5.65647 3.98326 5.61986 3.78115C5.59439 3.48514 5.61509 3.1955 5.60872 2.90268C5.60872 2.79287 5.60554 2.67193 5.61509 2.5653C5.62304 2.49846 5.63418 2.44913 5.68193 2.41252C5.82359 2.33295 6.06393 2.38865 6.22946 2.3616C6.27403 2.35523 6.32018 2.34568 6.35202 2.31545L6.3552 2.31226H6.35043ZM11.9451 6.35926C11.9737 6.3895 11.9833 6.43246 11.988 6.47543C12.0024 6.6855 11.9912 6.95445 11.9944 7.17407C11.9912 7.34117 12.0024 7.57511 11.9849 7.72311C11.9769 7.78358 11.9482 7.84088 11.8862 7.85838C11.7397 7.89658 11.5599 7.86952 11.4103 7.88225C11.2511 7.88862 11.2049 7.9475 11.1986 8.10505C11.1922 8.21804 11.2018 8.37719 11.189 8.48859C11.1843 8.60158 11.1126 8.65887 11.006 8.66046C10.9137 8.66842 10.7816 8.66524 10.6717 8.66524C10.6065 8.66364 10.5365 8.66364 10.4792 8.635C10.3025 8.52678 10.4823 8.05413 10.3327 7.92363C10.2627 7.86952 10.1099 7.88384 10.008 7.88066C9.88229 7.86952 9.71357 7.91408 9.6324 7.80109C9.57669 7.67219 9.60693 7.51463 9.59897 7.35231C9.59897 7.29661 9.59897 7.23613 9.59897 7.18362C9.59897 7.07222 9.59897 6.964 9.59897 6.8526C9.59897 6.73006 9.5942 6.57569 9.60693 6.47702C9.6133 6.43087 9.62444 6.38313 9.65946 6.35289C9.82021 6.22558 10.347 6.42292 10.3852 6.16988C10.4107 6.05211 10.3884 5.8134 10.4075 5.68131C10.4139 5.58105 10.4887 5.52535 10.589 5.52376C10.6877 5.5158 10.8134 5.51899 10.9137 5.51899C11.0108 5.52376 11.0776 5.51899 11.1413 5.56832C11.1731 5.59856 11.1843 5.64312 11.1906 5.68768C11.2065 5.81658 11.1874 6.03779 11.2081 6.15556C11.2368 6.43246 11.7891 6.21603 11.9435 6.35448L11.9467 6.35767L11.9451 6.35926ZM4.05527 7.82496C4.02662 7.79472 4.01707 7.75176 4.0123 7.70879C3.99797 7.49872 4.00912 7.22977 4.00593 7.01015C4.00912 6.84305 3.99797 6.60911 4.01548 6.46111C4.02344 6.40064 4.05209 6.34334 4.11416 6.32584C4.2606 6.28764 4.44045 6.3147 4.59007 6.30197C4.74923 6.2956 4.79539 6.23672 4.80175 6.07917C4.80812 5.96618 4.79857 5.80703 4.8113 5.69563C4.81449 5.58901 4.88452 5.52694 4.98639 5.52376C5.12008 5.51421 5.29198 5.5158 5.41295 5.52376C5.45115 5.52694 5.48934 5.53331 5.51959 5.55081C5.69626 5.65903 5.5164 6.13168 5.66602 6.26218C5.73605 6.31629 5.88885 6.30197 5.99071 6.30515C6.11645 6.31629 6.28517 6.27173 6.36634 6.38472C6.42205 6.51363 6.39181 6.67118 6.39977 6.8335C6.39977 6.8892 6.39977 6.94968 6.39977 7.00219C6.39977 7.11359 6.39977 7.22181 6.39977 7.33321C6.39977 7.45575 6.40454 7.61012 6.39181 7.70879C6.38544 7.75494 6.3743 7.80268 6.33928 7.83292C6.17853 7.96023 5.65169 7.7629 5.61349 8.01593C5.58803 8.1337 5.61031 8.37241 5.59121 8.5045C5.58484 8.60476 5.51004 8.66046 5.40976 8.66205C5.31108 8.67001 5.18534 8.66683 5.08507 8.66683C4.98798 8.66205 4.92113 8.66683 4.85746 8.61749C4.82563 8.58726 4.81449 8.5427 4.80812 8.49814C4.79221 8.36923 4.8113 8.14802 4.79061 8.03026C4.76196 7.75335 4.20966 7.96978 4.05527 7.83133L4.05209 7.82814L4.05527 7.82496ZM1.60891 7.08813C1.61528 6.35926 1.59618 5.63834 1.61528 4.91106C1.62324 4.80444 1.68054 4.74874 1.77763 4.73919C1.88904 4.72327 2.07527 4.736 2.19941 4.72646C2.28855 4.7185 2.34266 4.70418 2.37609 4.63893C2.43339 4.48615 2.38723 4.24425 2.41747 4.09466C2.42543 4.05169 2.44134 4.01031 2.47636 3.98644C2.58141 3.92438 2.74853 3.94984 2.87268 3.94507C3.10665 3.94507 3.29288 3.94507 3.5173 3.94507C3.78788 3.94507 4.0314 3.94507 4.2972 3.94507C4.43886 3.95939 4.72058 3.89414 4.77947 4.05169C4.81449 4.16627 4.80653 4.41454 4.7938 4.56572C4.78743 4.65643 4.72376 4.71691 4.63304 4.72168C4.50412 4.73919 4.2797 4.72009 4.15873 4.74078C4.03936 4.75192 4.00593 4.85854 4.00593 4.96676C3.99161 5.11317 4.03299 5.32483 3.95977 5.45055C3.92953 5.49193 3.87383 5.50785 3.79583 5.51421C3.64622 5.52853 3.46159 5.49989 3.31516 5.53967C3.14963 5.59219 3.21966 5.91843 3.20374 6.08076C3.20374 6.27014 3.20374 6.41655 3.20374 6.6123C3.20056 6.73006 3.21488 6.86852 3.18305 6.97991C3.10824 7.20908 2.58937 6.99583 2.4493 7.16134C2.36654 7.30457 2.42702 7.54965 2.39519 7.71515C2.38882 7.82337 2.30128 7.87589 2.19623 7.87589C2.09277 7.88225 1.95748 7.88066 1.85403 7.87907C1.72988 7.8727 1.64711 7.85997 1.62006 7.75017C1.58822 7.55919 1.61051 7.30457 1.60414 7.09768V7.08972L1.60891 7.08813ZM9.64991 15.0166C9.62921 15.0389 9.61807 15.0675 9.61171 15.0978C9.58624 15.2155 9.61012 15.4495 9.58942 15.5816C9.57828 15.771 9.35386 15.7439 9.20902 15.7471C8.44344 15.7471 7.7081 15.7471 6.93615 15.7471C6.79131 15.7375 6.60031 15.7741 6.47298 15.7057C6.43478 15.6787 6.42046 15.6341 6.4125 15.5895C6.39181 15.4638 6.4125 15.2346 6.39022 15.1121C6.3743 15.0007 6.29472 14.9689 6.17853 14.9641C6.02096 14.945 5.80449 14.9991 5.66602 14.9132C5.5928 14.8416 5.60872 14.7222 5.60394 14.6267C5.61509 14.4166 5.55142 14.1923 5.8029 14.1811C6.19922 14.1684 6.60986 14.1811 7.01414 14.1763C8.06622 14.1795 9.13581 14.1684 10.1879 14.1811C10.441 14.1875 10.3868 14.4039 10.3948 14.6188C10.3948 14.6983 10.3964 14.7827 10.3725 14.8559C10.2977 15.066 9.80111 14.8829 9.6515 15.015L9.64831 15.0182L9.64991 15.0166ZM14.3914 10.2423C14.3914 10.6609 14.3914 11.0858 14.3914 11.5027C14.3914 11.7383 14.3914 11.9117 14.3914 12.1409C14.3882 12.265 14.4089 12.4321 14.3325 12.5324C14.1765 12.6868 13.793 12.5038 13.637 12.6852C13.5303 12.8682 13.6672 13.1849 13.5176 13.3345C13.3935 13.4141 13.2088 13.3774 13.064 13.387C12.6024 13.387 12.1806 13.387 11.7159 13.387C11.1779 13.4156 11.1922 13.3233 11.1922 12.8348C11.1922 12.5308 10.8691 12.6136 10.6335 12.6008C10.4234 12.6358 9.63876 12.4926 9.61648 12.7536C9.56396 12.97 9.70084 13.4156 9.33635 13.3854C8.48323 13.3934 7.6508 13.3854 6.79449 13.3886C5.96366 13.4586 6.86294 12.5085 5.96684 12.6024C5.70581 12.6024 5.48775 12.6024 5.23309 12.6024C5.1169 12.6072 4.97684 12.5865 4.87975 12.6549C4.70785 12.8173 4.91795 13.2135 4.70307 13.3552C4.42772 13.4284 4.10302 13.3727 3.82448 13.3886C3.45045 13.3886 3.08437 13.3902 2.70874 13.3886C2.16917 13.4347 2.60369 12.7663 2.27263 12.6231C2.11187 12.5642 1.8015 12.6661 1.66303 12.526C1.58981 12.4067 1.61846 12.2205 1.6121 12.0804C1.6121 11.6651 1.6121 11.2577 1.6121 10.8519C1.61369 10.5511 1.6121 10.2646 1.6121 9.96861C1.62006 9.82379 1.58026 9.61532 1.6869 9.5071C1.80946 9.42753 2.37768 9.40207 2.392 9.59463C2.46204 10.0943 2.27581 10.2774 2.92998 10.2439C3.26263 10.2185 3.20852 10.5256 3.2117 10.7914C3.21329 11.0587 3.20533 11.3213 3.21648 11.5903C3.22762 11.9579 3.70193 11.7383 3.9168 11.856C4.08074 11.9818 3.96932 12.3064 4.0314 12.4703C4.09029 12.6724 4.54072 12.6056 4.69352 12.5754C4.89885 12.4974 4.7747 11.751 4.80812 11.5346C4.82245 11.1288 4.80175 11.003 4.37997 11.0301C4.26537 11.0269 4.11416 11.0381 4.05368 10.9457C3.955 10.6211 4.03299 10.2758 4.00912 9.9336C4.01867 9.7665 3.95977 9.49914 4.18738 9.46891C4.37679 9.46891 4.70148 9.38933 4.78425 9.58508C4.83836 9.87949 4.79539 10.1898 4.80812 10.4826C4.82085 10.6688 4.77311 10.8614 4.87815 10.976C5.05801 11.0985 5.35724 10.968 5.53232 11.0842C5.71218 11.2529 5.4782 11.673 5.73128 11.794C5.88566 11.8545 6.18489 11.7685 6.33451 11.8751C6.39977 11.9356 6.39817 12.0247 6.40295 12.1123C6.41887 12.273 6.35202 12.5308 6.54779 12.5865C6.89795 12.6311 7.2513 12.5945 7.60305 12.6056C8.09009 12.6056 8.56918 12.6056 9.06259 12.6056C9.22971 12.5881 9.51302 12.6693 9.57987 12.4656C9.64354 12.2491 9.49233 11.8035 9.84727 11.8226C10.0415 11.7988 10.3805 11.8942 10.3916 11.6094C10.4282 11.4343 10.3184 11.1065 10.5556 11.0476C10.7402 10.9903 11.0856 11.1176 11.1731 10.9044C11.2256 10.6036 11.1843 10.2901 11.197 9.9893C11.2065 9.8413 11.1683 9.66306 11.2479 9.53415C11.3641 9.41639 11.6029 9.46731 11.7811 9.46413C12.0628 9.47527 11.9817 9.78878 11.996 9.97975C11.996 10.1755 11.996 10.3283 11.996 10.5177C11.9833 10.7277 12.0517 10.9887 11.8114 11.0205C11.6458 11.0556 11.388 10.9824 11.2559 11.0985C11.1779 11.1988 11.2049 11.3563 11.197 11.4805C11.197 11.7065 11.197 11.8815 11.197 12.1107C11.2049 12.2905 11.1476 12.5929 11.4039 12.5976C11.5519 12.6072 11.7907 12.6183 11.8925 12.5706C12.1138 12.4226 11.8862 12.0279 12.0788 11.864C12.2809 11.7335 12.7345 11.9579 12.7839 11.6301C12.8412 11.3245 12.7075 10.4795 12.8682 10.2964C13.0115 10.2089 13.212 10.2614 13.3696 10.2392C13.6863 10.2344 13.5606 9.84926 13.602 9.64555C13.6274 9.4323 13.8232 9.46254 14.019 9.45777C14.1113 9.45936 14.2116 9.45458 14.2927 9.49437C14.4742 9.636 14.358 10.0339 14.3898 10.2407V10.2487L14.3914 10.2423ZM13.6433 7.82337C13.5033 7.65945 13.7261 7.12951 13.4301 7.10086C13.2995 7.08017 13.064 7.10245 12.9414 7.08017C12.8953 7.07222 12.8523 7.05312 12.8284 7.01015C12.7743 6.89716 12.7998 6.73802 12.7934 6.6107C12.7934 6.39586 12.7934 6.24627 12.7934 6.02506C12.7823 5.88183 12.8268 5.69086 12.7393 5.57309C12.5817 5.42509 12.0437 5.64948 12.0071 5.36621C11.9849 5.24367 12.0071 5.0145 11.9849 4.88878C11.9769 4.84581 11.9642 4.80284 11.9291 4.77579C11.848 4.7185 11.7063 4.73441 11.5965 4.73123C11.4676 4.72009 11.2861 4.76624 11.2225 4.62938C11.1795 4.47183 11.1954 4.23789 11.2081 4.09466C11.232 3.87823 11.5726 3.96098 11.7302 3.94347C12.1918 3.94347 12.6024 3.94347 13.0704 3.94347C13.2279 3.95939 13.5558 3.87823 13.5829 4.09466C13.6067 4.22357 13.5813 4.47183 13.6083 4.59278C13.6211 4.67235 13.6863 4.71532 13.7627 4.72168C13.8916 4.73919 14.1161 4.72009 14.237 4.74078C14.3405 4.75351 14.3819 4.82353 14.3866 4.93334C14.3946 5.03997 14.3898 5.15773 14.3914 5.26595C14.3914 5.96618 14.3914 6.64572 14.3914 7.35072C14.3755 7.50349 14.4519 7.82496 14.2561 7.86316C14.175 7.88225 14.0397 7.87748 13.9139 7.87748C13.8248 7.8727 13.7166 7.88544 13.6465 7.82496L13.6433 7.82178V7.82337Z" fill="#202020"/>
</svg>
