<svg width="256" height="256" viewBox="0 0 256 256" fill="none" xmlns="http://www.w3.org/2000/svg">
<rect width="256" height="256" fill="#FEFEFE"/>
<path d="M201.815 87.4337C200.506 83.5872 201.621 78.9973 201.25 74.9246C201.573 71.5306 198.356 72.064 195.964 72.064C193.685 71.6276 185.344 73.3407 185.15 70.4155C184.698 68.7347 185.619 65.9387 184.31 64.5649C180.253 63.4013 175.614 64.371 171.427 64.0639C168.162 63.7407 164.428 64.7427 161.357 63.5306C160.307 62.2861 160.808 60.2336 160.678 58.375C160.242 56.0154 161.939 48.5487 159.062 48.2093C154.94 47.7245 149.638 48.5487 145.565 47.8214C142.268 45.1386 147.699 39.3527 140.102 40.0962C133.976 40.0962 128.157 40.0962 122.03 40.0962C119.315 40.4517 114.644 39.2558 112.445 40.8719C111.136 43.5548 113.625 48.7427 108.711 48.08C105.85 48.1124 103.313 48.08 100.419 48.08C98.7706 48.1447 96.0873 47.6275 95.8772 49.874C95.5054 54.1407 96.1358 58.472 95.5863 62.7548C94.8427 64.7589 91.9979 63.87 90.3007 64.0639C85.6616 64.0639 81.4429 64.0639 76.8361 64.0639C75.3329 64.1447 73.3932 63.773 72.1163 64.5973C70.4676 66.3266 72.5527 70.2377 70.4999 71.7246C66.5074 72.565 62.2563 71.8215 58.1507 72.0801C54.8209 71.7246 55.1927 74.8115 55.225 77.2034C54.8371 79.7731 56.211 86.2862 54.2228 87.7246C52.17 88.759 47.2724 86.6256 47.1592 90.2135C47.0299 96.662 47.1592 103.046 47.1107 109.43C47.5148 111.741 45.9631 119.111 48.4685 119.806C56.0655 120.226 55.225 119.45 55.225 127.191C54.8209 129.503 56.3888 135.224 53.6733 135.838C51.6204 136.436 47.3532 134.836 47.1754 137.987C47.0299 147.264 47.0784 156.444 47.1754 165.753C47.337 169.923 53.3661 166.367 54.934 168.953C56.8737 185.891 49.8424 183.822 69.3199 183.967C72.9083 184.081 70.6615 189.01 71.8577 191.03C72.5689 192.113 74.2338 191.822 75.4299 191.903C77.8545 191.887 79.8103 191.903 82.2187 191.903C86.3728 192.21 90.9957 191.256 95.0529 192.371C96.6531 194.78 95.457 199.66 95.8126 202.666C95.9742 204.412 95.1337 207.321 97.429 207.774C101.599 208.113 105.737 207.741 109.891 207.951C113.738 208.081 110.893 213.527 112.704 215.353C115.904 216.533 119.897 215.596 123.243 215.887C129.692 215.854 135.834 215.968 142.268 215.838C145.694 215.854 143.997 211.232 144.676 209.277C145.323 205.656 160.921 210.376 160.63 206.028C160.84 202.408 160.662 198.998 160.727 195.329C160.387 192.129 162.182 191.741 164.881 191.903C171.056 191.838 177.004 192.032 183.162 191.822C186.104 191.547 184.682 187.652 185.167 185.697C185.538 183.095 188.787 184.129 190.646 183.903C193.071 183.466 200.894 185.18 201.169 182.254C201.67 177.842 200.765 173.252 201.605 168.937C201.848 168.42 202.284 168.145 202.979 168.032C204.693 167.644 207.457 168.42 208.814 167.321C210.075 164.606 209.122 160.889 209.412 157.979C209.412 152.258 209.412 146.796 209.412 141.09C209.283 139.474 210.011 136.598 207.925 136.113C206.067 135.515 202.882 136.808 201.605 134.933C200.862 131.49 201.492 127.288 201.298 123.587C200.377 116.234 210.253 123.684 209.412 116.46C209.364 107.636 209.509 98.9732 209.348 90.1166C209.105 86.3347 203.836 89.0984 201.88 87.4499L201.848 87.4176L201.815 87.4337ZM111.492 63.4821C111.686 63.272 111.799 62.9973 111.879 62.7064C112.187 61.4781 111.896 58.9568 112.154 57.6316C112.316 56.5811 113.059 56.177 114.159 56.1285C119.477 55.9993 124.843 56.1285 130.08 56.0801C133.07 56.0801 135.931 56.0801 138.906 56.0801C140.037 56.0801 141.265 56.0477 142.365 56.1285C143.464 56.1932 144.207 56.5972 144.369 57.6316C144.611 58.8437 144.385 61.0902 144.595 62.367C144.676 62.8195 144.805 63.2558 145.145 63.5468C146.228 64.3387 148.329 63.967 149.703 64.0639C150.624 64.1124 151.659 64.0639 152.208 64.8559C152.903 66.2619 152.499 68.1852 152.613 69.9306C152.613 71.8539 152.613 73.5024 152.613 75.5549C152.516 76.9448 153.017 79.2721 151.4 79.8216C150.624 80.0802 149.267 80.0317 147.973 80.0317C146.923 79.967 145.452 80.1771 144.854 79.1428C144.046 77.3165 144.983 74.6013 144.11 72.8397C143.593 72.0316 142.381 72.0801 141.427 72.0478C135.269 72.0478 129.401 72.0478 123.259 72.0478C121.093 72.0478 119.266 72.0478 116.987 72.0478C115.791 72.0801 114.369 71.9508 113.27 72.2579C111.281 72.8559 112.429 76.8963 111.928 78.5448C111.653 80.2579 109.617 79.9832 108.307 80.0317C106.4 79.9185 104.444 80.4519 104.072 78.3993C103.814 75.3933 104.024 72.4518 103.959 69.4781C103.959 68.3629 103.927 67.1347 104.024 66.0518C104.105 65.373 104.218 64.872 104.703 64.5003C106.141 63.6922 108.582 64.2579 110.263 63.9831C110.716 63.9185 111.184 63.8215 111.508 63.5144L111.54 63.4821H111.492ZM168.308 104.581C168.599 104.888 168.696 105.325 168.744 105.761C168.89 107.894 168.776 110.626 168.809 112.856C168.776 114.553 168.89 116.929 168.712 118.432C168.631 119.046 168.34 119.628 167.71 119.806C166.223 120.193 164.396 119.919 162.877 120.048C161.26 120.113 160.791 120.711 160.727 122.311C160.662 123.458 160.759 125.074 160.63 126.206C160.581 127.353 159.854 127.935 158.771 127.951C157.833 128.032 156.492 128 155.377 128C154.714 127.983 154.003 127.983 153.421 127.692C151.627 126.593 153.453 121.793 151.934 120.468C151.222 119.919 149.671 120.064 148.636 120.032C147.359 119.919 145.646 120.371 144.822 119.224C144.256 117.915 144.563 116.315 144.482 114.666C144.482 114.1 144.482 113.486 144.482 112.953C144.482 111.822 144.482 110.723 144.482 109.591C144.482 108.347 144.434 106.779 144.563 105.777C144.628 105.309 144.741 104.824 145.096 104.517C146.729 103.224 152.079 105.228 152.467 102.658C152.726 101.462 152.499 99.0378 152.693 97.6964C152.758 96.6782 153.518 96.1125 154.536 96.0964C155.538 96.0156 156.815 96.0479 157.833 96.0479C158.819 96.0964 159.498 96.0479 160.145 96.5489C160.468 96.856 160.581 97.3085 160.646 97.761C160.808 99.0701 160.614 101.317 160.824 102.513C161.115 105.325 166.724 103.127 168.292 104.533L168.324 104.565L168.308 104.581ZM88.1832 119.466C87.8922 119.159 87.7953 118.723 87.7468 118.286C87.6013 116.153 87.7144 113.422 87.6821 111.191C87.7144 109.494 87.6013 107.119 87.7791 105.616C87.8599 105.001 88.1509 104.42 88.7813 104.242C90.2683 103.854 92.0949 104.129 93.6143 103.999C95.2307 103.935 95.6994 103.337 95.7641 101.737C95.8287 100.589 95.7317 98.9732 95.8611 97.8418C95.8934 96.759 96.6046 96.1287 97.6391 96.0964C98.9969 95.9994 100.743 96.0156 101.971 96.0964C102.359 96.1287 102.747 96.1933 103.054 96.3711C104.848 97.4701 103.022 102.27 104.541 103.595C105.252 104.145 106.804 103.999 107.839 104.032C109.115 104.145 110.829 103.692 111.653 104.84C112.219 106.149 111.912 107.749 111.993 109.397C111.993 109.963 111.993 110.577 111.993 111.111C111.993 112.242 111.993 113.341 111.993 114.472C111.993 115.717 112.041 117.284 111.912 118.286C111.847 118.755 111.734 119.24 111.378 119.547C109.746 120.84 104.396 118.836 104.008 121.406C103.749 122.602 103.975 125.026 103.781 126.367C103.717 127.385 102.957 127.951 101.939 127.967C100.937 128.048 99.6596 128.016 98.6412 128.016C97.6552 127.967 96.9764 128.016 96.3298 127.515C96.0065 127.208 95.8934 126.755 95.8287 126.303C95.6671 124.993 95.8611 122.747 95.6509 121.551C95.36 118.739 89.7511 120.937 88.1832 119.531L88.1509 119.498L88.1832 119.466ZM63.3393 111.983C63.4039 104.581 63.21 97.26 63.4039 89.8741C63.4848 88.7913 64.0667 88.2256 65.0527 88.1287C66.1841 87.9671 68.0753 88.0963 69.3361 87.9994C70.2413 87.9186 70.7908 87.7731 71.1303 87.1105C71.7122 85.559 71.2434 83.1024 71.5505 81.5832C71.6314 81.1468 71.793 80.7266 72.1486 80.4842C73.2154 79.8539 74.9126 80.1125 76.1734 80.064C78.5495 80.064 80.4407 80.064 82.7198 80.064C85.4677 80.064 87.9407 80.064 90.6401 80.064C92.0787 80.2095 94.9397 79.5468 95.5378 81.1468C95.8934 82.3105 95.8126 84.8317 95.6833 86.3671C95.6186 87.2883 94.972 87.9024 94.0507 87.9509C92.7414 88.1287 90.4623 87.9347 89.2339 88.1448C88.0216 88.258 87.6821 89.3408 87.6821 90.4398C87.5366 91.9267 87.9569 94.0762 87.2134 95.3529C86.9063 95.7731 86.3405 95.9348 85.5485 95.9994C84.0291 96.1449 82.1541 95.854 80.667 96.258C78.9859 96.7913 79.6972 100.104 79.5355 101.753C79.5355 103.676 79.5355 105.163 79.5355 107.151C79.5032 108.347 79.6487 109.753 79.3254 110.884C78.5657 113.212 73.2962 111.046 71.8738 112.727C71.0333 114.181 71.6475 116.67 71.3242 118.351C71.2596 119.45 70.3706 119.983 69.3038 119.983C68.2531 120.048 66.8792 120.032 65.8285 120.016C64.5677 119.951 63.7272 119.822 63.4524 118.707C63.1291 116.767 63.3554 114.181 63.2908 112.08V111.999L63.3393 111.983ZM144.999 192.501C144.789 192.727 144.676 193.018 144.611 193.325C144.353 194.521 144.595 196.897 144.385 198.238C144.272 200.161 141.993 199.887 140.522 199.919C132.747 199.919 125.279 199.919 117.44 199.919C115.969 199.822 114.029 200.194 112.736 199.499C112.348 199.224 112.203 198.772 112.122 198.319C111.912 197.042 112.122 194.715 111.896 193.47C111.734 192.339 110.926 192.016 109.746 191.967C108.146 191.774 105.947 192.323 104.541 191.45C103.798 190.723 103.959 189.511 103.911 188.541C104.024 186.408 103.377 184.129 105.931 184.016C109.956 183.887 114.126 184.016 118.232 183.967C128.916 184 139.778 183.887 150.463 184.016C153.033 184.081 152.483 186.279 152.564 188.46C152.564 189.268 152.58 190.125 152.338 190.868C151.578 193.002 146.535 191.143 145.015 192.485L144.983 192.517L144.999 192.501ZM193.152 144.016C193.152 148.266 193.152 152.581 193.152 156.816C193.152 159.208 193.152 160.969 193.152 163.297C193.119 164.557 193.329 166.254 192.554 167.272C190.969 168.84 187.074 166.981 185.49 168.824C184.407 170.683 185.797 173.899 184.278 175.418C183.017 176.226 181.142 175.854 179.671 175.951C174.983 175.951 170.7 175.951 165.98 175.951C160.517 176.242 160.662 175.305 160.662 170.343C160.662 167.256 157.381 168.097 154.989 167.967C152.855 168.323 144.886 166.868 144.66 169.519C144.126 171.717 145.517 176.242 141.815 175.935C133.151 176.016 124.697 175.935 116.001 175.967C107.564 176.679 116.696 167.03 107.596 167.984C104.945 167.984 102.731 167.984 100.144 167.984C98.9645 168.032 97.5421 167.822 96.5561 168.517C94.8104 170.165 96.944 174.19 94.7619 175.628C91.9656 176.371 88.6681 175.806 85.8394 175.967C82.0409 175.967 78.3232 175.984 74.5085 175.967C69.029 176.436 73.4417 169.648 70.0796 168.194C68.4471 167.596 65.2951 168.63 63.8888 167.208C63.1453 165.996 63.4363 164.105 63.3716 162.683C63.3716 158.464 63.3716 154.327 63.3716 150.206C63.3878 147.151 63.3716 144.242 63.3716 141.236C63.4524 139.765 63.0483 137.648 64.1313 136.549C65.3759 135.741 71.1464 135.482 71.2919 137.438C72.0031 142.513 70.112 144.371 76.7553 144.032C80.1336 143.773 79.584 146.893 79.6163 149.592C79.6325 152.307 79.5517 154.973 79.6648 157.705C79.778 161.438 84.5948 159.208 86.7769 160.404C88.4418 161.68 87.3103 164.977 87.9407 166.642C88.5388 168.695 93.1132 168.016 94.6649 167.709C96.7501 166.917 95.4893 159.337 95.8287 157.139C95.9742 153.018 95.7641 151.741 91.4806 152.016C90.3168 151.983 88.7813 152.097 88.167 151.159C87.1649 147.862 87.9569 144.355 87.7144 140.88C87.8114 139.183 87.2134 136.468 89.5248 136.161C91.4483 136.161 94.7457 135.353 95.5863 137.341C96.1358 140.331 95.6994 143.482 95.8287 146.456C95.958 148.347 95.4731 150.303 96.5399 151.466C98.3665 152.711 101.405 151.385 103.183 152.565C105.01 154.278 102.634 158.545 105.204 159.773C106.772 160.388 109.811 159.515 111.33 160.598C111.993 161.212 111.976 162.117 112.025 163.006C112.187 164.638 111.508 167.256 113.496 167.822C117.052 168.274 120.64 167.903 124.213 168.016C129.159 168.016 134.024 168.016 139.035 168.016C140.732 167.838 143.609 168.662 144.288 166.594C144.935 164.396 143.399 159.87 147.004 160.064C148.976 159.822 152.419 160.792 152.532 157.899C152.903 156.121 151.788 152.792 154.197 152.194C156.072 151.612 159.579 152.905 160.468 150.739C161.002 147.684 160.581 144.501 160.711 141.446C160.808 139.943 160.42 138.133 161.228 136.824C162.408 135.628 164.832 136.145 166.643 136.113C169.504 136.226 168.679 139.41 168.825 141.349C168.825 143.337 168.825 144.888 168.825 146.812C168.696 148.945 169.391 151.596 166.95 151.919C165.269 152.274 162.65 151.531 161.309 152.711C160.517 153.729 160.791 155.329 160.711 156.59C160.711 158.884 160.711 160.662 160.711 162.99C160.791 164.816 160.21 167.887 162.812 167.935C164.315 168.032 166.74 168.145 167.774 167.66C170.021 166.157 167.71 162.149 169.665 160.485C171.718 159.159 176.325 161.438 176.826 158.109C177.408 155.006 176.05 146.424 177.683 144.565C179.137 143.676 181.174 144.21 182.774 143.983C185.991 143.935 184.714 140.024 185.134 137.955C185.393 135.789 187.381 136.097 189.369 136.048C190.307 136.064 191.325 136.016 192.149 136.42C193.992 137.858 192.812 141.899 193.135 144V144.08L193.152 144.016ZM185.555 119.45C184.132 117.785 186.395 112.404 183.389 112.113C182.063 111.902 179.671 112.129 178.426 111.902C177.958 111.822 177.521 111.628 177.279 111.191C176.729 110.044 176.988 108.428 176.923 107.135C176.923 104.953 176.923 103.434 176.923 101.187C176.81 99.7328 177.262 97.7934 176.373 96.5974C174.773 95.0944 169.31 97.3732 168.938 94.4964C168.712 93.2519 168.938 90.9246 168.712 89.6479C168.631 89.2115 168.502 88.7751 168.146 88.5004C167.322 87.9186 165.883 88.0802 164.768 88.0479C163.459 87.9347 161.616 88.4034 160.969 87.0135C160.533 85.4135 160.694 83.0377 160.824 81.5832C161.066 79.3852 164.525 80.2256 166.126 80.0478C170.813 80.0478 174.983 80.0478 179.736 80.0478C181.336 80.2095 184.666 79.3852 184.94 81.5832C185.183 82.8923 184.924 85.4135 185.199 86.6418C185.328 87.4499 185.991 87.8862 186.767 87.9509C188.076 88.1287 190.355 87.9347 191.584 88.1448C192.634 88.2741 193.055 88.9852 193.103 90.1004C193.184 91.1832 193.135 92.3792 193.152 93.4782C193.152 100.589 193.152 107.49 193.152 114.65C192.99 116.202 193.766 119.466 191.778 119.854C190.953 120.048 189.579 119.999 188.302 119.999C187.397 119.951 186.298 120.08 185.587 119.466L185.555 119.434V119.45Z" fill="black"/>
</svg>
